<svg data-v-0dd9719b="" version="1.0" xmlns="http://www.w3.org/2000/svg" xmlns:xlink="http://www.w3.org/1999/xlink" width="100%" height="100%" viewBox="0 0 60 51.18580627441406" preserveAspectRatio="xMidYMid meet" color-interpolation-filters="sRGB" style="margin: auto;"> <rect data-v-0dd9719b="" x="0" y="0" width="100%" height="100%" fill="#fff" fill-opacity="1" class="background" style="display: none;"></rect> <rect data-v-0dd9719b="" x="0" y="0" width="100%" height="100%" fill="url(#watermark)" fill-opacity="1" class="watermarklayer" style="display: none;"></rect> <g data-v-0dd9719b="" class="imagesvg isNoFont"><g><rect fill="#333" fill-opacity="0" stroke-width="2" x="0" y="0" width="60" height="51.18580447022693" class="image-rect"></rect> <svg x="0" y="0" width="60" height="51.18580447022693" filtersec="colorsb987401961" class="image-svg-svg primary" style="overflow: visible;"><svg xmlns="http://www.w3.org/2000/svg" viewBox="0 0 117.22000122070312 100"><path fill="#f05c3e" d="M86.08 7.09L67.26 43.88l-13.73-19.4-17.16 33.54 13.73 19.4L66.08 100l17.15-33.54L117.22 0 86.08 7.09z"></path><path fill="#04b0ba" d="M0 63.73L19.86 90.3l16.51-32.28-19.42-27.44L0 63.73z"></path><path fill="red" d="M16.78 30.33l.17.25.16-.31-.33.06z"></path><path fill="red" d="M53.2 24.02l-36.09 6.25-.16.31 19.42 27.44 17.16-33.54-.33-.46z"></path><path fill="#222960" d="M53.2 24.02l-36.09 6.25-.16.31 19.42 27.44 17.16-33.54-.33-.46z"></path></svg></svg> <!----></g></g><defs v-gra="od"></defs></svg>
